<svg xmlns="http://www.w3.org/2000/svg" viewBox="0 0 25 25"><path d="M12.5,13.223a3.737,3.737,0,0,0,3.053-1.59c.006-.008.015-.011.021-.019l.007-.015A3.741,3.741,0,1,0,12.5,13.223Zm2.745-3.745A2.727,2.727,0,0,1,15,10.605L13,9.216V6.783A2.746,2.746,0,0,1,15.245,9.478ZM12,6.783V9.478a.5.5,0,0,0,.215.41l2.214,1.539A2.743,2.743,0,1,1,12,6.783Zm-3.856,8.59a.5.5,0,0,1,.5-.5H12.5a.5.5,0,0,1,0,1H8.644A.5.5,0,0,1,8.144,15.373Zm8.712,1.8a.5.5,0,0,1-.5.5H8.644a.5.5,0,0,1,0-1h7.712A.5.5,0,0,1,16.856,17.169Zm0,1.8a.5.5,0,0,1-.5.5H8.644a.5.5,0,0,1,0-1h7.712A.5.5,0,0,1,16.856,18.965ZM19.791,6.289a.506.506,0,0,0-.109-.164L16.715,3.149a.479.479,0,0,0-.163-.11A.5.5,0,0,0,16.36,3H6.67a1.5,1.5,0,0,0-1.5,1.5v16A1.5,1.5,0,0,0,6.67,22H18.33a1.5,1.5,0,0,0,1.5-1.5V6.48A.48.48,0,0,0,19.791,6.289ZM16.86,4.71l1.266,1.27H17.36a.5.5,0,0,1-.5-.5ZM18.33,21H6.67a.5.5,0,0,1-.5-.5V4.5a.5.5,0,0,1,.5-.5h9.19V5.48a1.5,1.5,0,0,0,1.5,1.5h1.47V20.5A.5.5,0,0,1,18.33,21Z"/></svg>