<?xml version="1.0" encoding="utf-8"?>
<!-- Svg Vector Icons : http://www.onlinewebfonts.com/icon -->
<!DOCTYPE svg PUBLIC "-//W3C//DTD SVG 1.1//EN" "http://www.w3.org/Graphics/SVG/1.1/DTD/svg11.dtd">
<svg version="1.1" xmlns="http://www.w3.org/2000/svg" xmlns:xlink="http://www.w3.org/1999/xlink" x="0px" y="0px" viewBox="0 0 1000 1000" enable-background="new 0 0 1000 1000" xml:space="preserve">
<metadata> Svg Vector Icons : http://www.onlinewebfonts.com/icon </metadata>
<g><g transform="translate(0.000000,511.000000) scale(0.100000,-0.100000)"><path d="M1795.4,5013.9c-431.8-90.6-735-532.8-655-960.4c61.1-332.8,282.2-581.3,600.2-671.9c507.6-147.4,1032,225.4,1061.5,749.8c21.1,379.1-189.6,709.7-537.1,840.3C2126.1,5024.5,1930.2,5041.3,1795.4,5013.9z"/><path d="M1907,3051c-101.1-27.4-141.1-99-126.4-231.7c10.5-75.8-2.1-181.1-40-362.2c-31.6-139-61.1-267.5-69.5-282.2c-8.4-14.7-105.3,107.4-254.8,324.3c-130.6,191.7-259,360.1-286.4,370.7c-37.9,16.8-103.2-6.3-377-132.7c-381.2-179-522.3-286.4-602.4-465.5L100,2160.1V928.1V-304l67.4-141.1c115.8-244.3,341.2-417,591.8-450.7l109.5-14.7v-1550.1c0-1714.4-2.1-1682.8,132.7-1859.7c149.5-193.8,370.7-267.5,608.7-198c149.5,42.1,210.6,92.7,275.9,223.2l52.7,107.4l69.5-94.8c124.3-174.8,267.5-244.3,494.9-244.3c170.6,0,305.4,48.4,410.7,151.6c143.2,139,172.7,233.8,183.2,579.2l8.4,299.1l-94.8,164.3c-301.2,513.9-476,1040.4-539.2,1632.2c-88.5,808.8,115.8,1716.5,543.4,2422l86.4,141.1V1343v480.2l210.6-210.6l210.6-210.6l132.7,122.1c71.6,69.5,202.2,181.1,288.5,250.6c86.4,69.5,160.1,132.7,164.3,141.1c2.1,8.4-204.3,233.8-461.2,503.3l-465.5,490.7l-181.1-6.3l-181.1-6.3l-107.4-139c-56.9-75.8-179-240.1-269.6-366.5c-90.6-124.2-168.5-221.1-172.7-216.9c-4.2,4.2-37.9,136.9-71.6,290.6c-40,187.5-54.8,297-42.1,320.1c33.7,61.1,21.1,139-33.7,202.2C2062.9,3059.4,2003.9,3076.3,1907,3051z"/><path d="M6001.3,2168.6C4565,2002.2,3358.2,949.1,3008.5-440.9c-238-939.3-94.8-1882.9,410.7-2712.7c326.4-530.8,901.4-1048.8,1474.3-1318.4c488.6-231.7,947.7-334.9,1503.8-334.9c680.3,0,1263.7,164.3,1838.6,516c800.3,488.6,1398.5,1341.6,1592.2,2270.4c157.9,747.7,52.7,1567-288.6,2253.5C8878.3,1562,7458.8,2339.2,6001.3,2168.6z M6738.5,1347.2C7513.5,1241.9,8193.8,820.7,8634,169.9c166.4-246.4,326.4-638.1,398-973c52.7-244.3,52.7-762.4,2.1-1006.7c-120-564.4-349.6-994.1-749.8-1392.1c-395.9-396-810.8-623.4-1356.3-737.1c-303.3-65.3-760.3-65.3-1067.8,0c-541.3,115.8-1004.6,372.8-1392.2,775c-494.9,516-743.5,1131-743.5,1849.2c0,476,82.1,821.4,299.1,1240.5C4531.3,915.4,5643.3,1496.7,6738.5,1347.2z"/><path d="M5439,418.4c-128.5-69.5-189.6-164.3-189.6-290.6c0-92.7,29.5-149.5,385.4-739.2c212.7-351.7,412.8-680.3,442.3-728.7l56.9-90.6V-2288c0-806.6,2.1-863.5,40-920.4c65.3-99,145.3-139,282.2-139c143.2,0,225.4,35.8,292.8,130.6l48.4,69.5l6.3,947.8l4.2,947.7L6319.4-443c-269.6,444.4-516,827.7-545.5,850.9C5685.4,473.1,5550.6,477.4,5439,418.4z"/></g></g>
</svg>